<?xml version="1.0" encoding="utf-8"?>
<!-- Generator: Adobe Illustrator 21.1.0, SVG Export Plug-In . SVG Version: 6.00 Build 0)  -->
<svg version="1.1" id="Layer_1" xmlns="http://www.w3.org/2000/svg" xmlns:xlink="http://www.w3.org/1999/xlink" x="0px" y="0px"
	 width="818px" height="149px" viewBox="0 0 818 149" style="enable-background:new 0 0 818 149;" xml:space="preserve">
<style type="text/css">
	.st0{fill:#444444;}
</style>
<g>
	<path class="st0" d="M91,72.5h23.2v1.6h-0.8c-3.2,0-5.3,5.4-5.3,8.4V126c-7.6,2.9-20.7,4.5-30.5,4.5C38.5,130.5,20,102,20,75.3
		c0-26.9,18.3-55,58.4-55c7.6,0,14.1,1.6,19.1,2.8c2.8,0.6,4.9,1.3,6.3,1.3h1.5v17.2h-1.6C101,28.1,87.3,26,77.7,26
		c-32.6,0-46.8,25.1-46.8,47.7c0,25.1,19.8,51.1,49.6,51.1c4.1,0,10.7-0.6,16.7-4V82.6c0-3.1-1.9-8.4-5.3-8.4H91V72.5z"/>
	<path class="st0" d="M231.2,127.3v1.6h-22.9v-1.6h0.8c3.2,0,5.2-5.7,5.2-8.9V32c0-3.1-1.9-8.4-5.2-8.4h-0.8v-1.6h28.2
		c21.6,0,33.9,8.6,33.9,25c0,16.4-11.5,24.5-25.3,27.1l11.7,17.8c5.7,8.6,11.5,16.7,17.2,25.6c3.1,4.4,7.3,9.9,12.2,9.9v1.6h-7
		c-8.6,0-13.8-4.9-17.5-10.5c-9.7-14.3-19.3-29.2-28.9-43.4c-2.4-0.2-5.2-0.5-7.6-1v44.4c0,3.2,1.9,8.9,5.2,8.9H231.2z M225.2,27.5
		v41.2h0.8c1.8,0.2,5.5,0.3,11.2,0.3c8.9,0,22-5.2,22-21.4c0-16.4-13-20.1-31.6-20.1H225.2z"/>
	<path class="st0" d="M435.7,127.3h0.8c2.6,0,3.9-1.1,3.9-3.6c0-0.8-0.2-1.8-0.5-2.8l-14.6-39.4H397l-14.1,38.7
		c-0.3,0.8-0.5,1.6-0.5,2.4c0,2.8,1.8,4.5,3.6,4.5h0.8v1.6h-18v-1.6h0.8c2.8,0,5.7-3.9,7.5-8.4L414.2,20l36.3,97.9
		c1.5,4.4,4.1,9.4,8.4,9.4h0.8v1.6h-24V127.3z M398.6,76.1h25l-12.5-33.9L398.6,76.1z"/>
	<path class="st0" d="M586.8,127.3v1.6h-23.2v-1.6h0.8c3.4,0,5.4-5.3,5.4-8.6V32c0-3.1-1.8-8.4-5.4-8.4h-0.8v-1.6h66.1V37h-1.6
		c0-5-3.2-9.4-10.4-9.4h-37.1v41h30.8c5,0,8.8-3.6,8.8-7.6h1.6v20.3h-1.6c0-3.9-3.6-7.1-8.8-7.1h-30.8v44.6c0,3.2,1.9,8.6,5.3,8.6
		H586.8z"/>
	<path class="st0" d="M755.6,127.3v1.6h-23.2v-1.6h0.8c3.4,0,5.4-5.3,5.4-8.6V32c0-3.1-1.8-8.4-5.4-8.4h-0.8v-1.6h66.1V37h-1.6
		c0-5-3.2-9.4-10.4-9.4h-37.1v41h30.8c5,0,8.8-3.6,8.8-7.6h1.6v20.3h-1.6c0-3.9-3.6-7.1-8.8-7.1h-30.8v44.6c0,3.2,2,8.6,5.4,8.6
		H755.6z"/>
</g>
</svg>
